# xmcd
#
# Track frame offsets:
#	150
#	10128
#	24160
#	36650
#	48839
#	60680
#	71885
#	87773
#	98444
#	112511
#
# Disc length: 1627 seconds
#
# Revision: 0
# Processed by: cddbd v1.5.2PL0 Copyright (c) Steve Scherf et al.
# Submitted via: audiograbber 1.83.01
#
DISCID=6f06590a
DTITLE=The Del McCoury Band - Celebrating 50 Years Of - CD2
DYEAR=2009
DGENRE=Bluegrass
TTITLE0=Big Rock in the Road
TTITLE1=High On the Mountain
TTITLE2=Rain Please Go Away
TTITLE3=Pick Me Up On Your Way Down
TTITLE4=Good Man Like Me
TTITLE5=I've Endured
TTITLE6=Bluest Man In Town
TTITLE7=Don't You Call My Name
TTITLE8=Evil Hearted Woman
TTITLE9=Loggin' Man
EXTD=
EXTT0=
EXTT1=
EXTT2=
EXTT3=
EXTT4=
EXTT5=
EXTT6=
EXTT7=
EXTT8=
EXTT9=
PLAYORDER=
